<svg xmlns="http://www.w3.org/2000/svg" viewBox="0 0 64 64" width="64" height="64">
  <rect width="64" height="64" rx="14" fill="#231a10"/>
  <!-- Filipino sun rays -->
  <g fill="#d4a017">
    <path d="M32 9l1.6 5.2h-3.2z"/>
    <path d="M21.4 12.2l3.4 4.2-2.8 1.4z"/>
    <path d="M42.6 12.2l-0.6 5.6-2.8-1.4z"/>
    <circle cx="32" cy="19" r="3.4"/>
  </g>
  <!-- Spoon (left) -->
  <g fill="#d4a017">
    <ellipse cx="22" cy="34" rx="5.4" ry="7"/>
    <rect x="20.6" y="40" width="2.8" height="15" rx="1.4"/>
  </g>
  <!-- Fork (right) -->
  <g fill="#d4a017">
    <rect x="40" y="27" width="1.8" height="8" rx="0.9"/>
    <rect x="43.1" y="27" width="1.8" height="8" rx="0.9"/>
    <rect x="46.2" y="27" width="1.8" height="8" rx="0.9"/>
    <path d="M40 34h8v2.5a4 4 0 0 1-4 4 4 4 0 0 1-4-4z"/>
    <rect x="42.6" y="40" width="2.8" height="15" rx="1.4"/>
  </g>
  <!-- SM monogram baseline -->
  <text x="32" y="60" font-family="Georgia, 'Times New Roman', serif" font-size="9" font-weight="700" fill="#f2e6d0" text-anchor="middle" letter-spacing="1">SMD</text>
</svg>
